# xmcd
#
# Track frame offsets:
#	150
#	14584
#	30215
#	50450
#	70572
#	86635
#	100312
#	112187
#	127707
#	142022
#
# Disc length: 2296 seconds
#
# Revision: 0
# Processed by: cddbd v1.5.1PL0 Copyright (c) Steve Scherf et al.
# Submitted via: dBpowerAMP V4.0
#
DISCID=7e08f60a
DTITLE=Cry'n Wolf - Cry'n Wolf
DYEAR=1997
DGENRE=Country
TTITLE0=Something Old, Something Borrowed, Something New
TTITLE1=Queen of My Country
TTITLE2=My Heart Don't Live Hear No More
TTITLE3=No Doubt
TTITLE4=Neon Blue
TTITLE5=Ode To Country
TTITLE6=Wild Women, Tame Horses
TTITLE7=I'd Rather Be Honky Tonkin'
TTITLE8=Another Honky Tonk Night
TTITLE9=Here we Go Again
EXTD=
EXTT0=
EXTT1=
EXTT2=
EXTT3=
EXTT4=
EXTT5=
EXTT6=
EXTT7=
EXTT8=
EXTT9=
PLAYORDER=
